<mxfile host="Electron" modified="2024-02-06T09:36:33.470Z" agent="Mozilla/5.0 (Windows NT 10.0; Win64; x64) AppleWebKit/537.36 (KHTML, like Gecko) draw.io/23.0.2 Chrome/120.0.6099.109 Electron/28.1.0 Safari/537.36" etag="XVHWUEzKvnYRIreZEw6w" version="23.0.2" type="device">
  <diagram name="Страница — 1" id="yOlRsWtxwd_PW9bbzS2Y">
    <mxGraphModel dx="2394" dy="1172" grid="1" gridSize="10" guides="1" tooltips="1" connect="1" arrows="1" fold="1" page="1" pageScale="1" pageWidth="827" pageHeight="1169" math="0" shadow="0">
      <root>
        <mxCell id="0" />
        <mxCell id="1" parent="0" />
        <mxCell id="36dUeiA59A3MmwxQMmb6-16" style="edgeStyle=orthogonalEdgeStyle;rounded=0;orthogonalLoop=1;jettySize=auto;html=1;entryX=0.5;entryY=0;entryDx=0;entryDy=0;" parent="1" source="36dUeiA59A3MmwxQMmb6-1" target="36dUeiA59A3MmwxQMmb6-15" edge="1">
          <mxGeometry relative="1" as="geometry">
            <Array as="points">
              <mxPoint x="70" y="245" />
            </Array>
          </mxGeometry>
        </mxCell>
        <mxCell id="36dUeiA59A3MmwxQMmb6-20" style="edgeStyle=orthogonalEdgeStyle;rounded=0;orthogonalLoop=1;jettySize=auto;html=1;entryX=0;entryY=0.5;entryDx=0;entryDy=0;" parent="1" source="36dUeiA59A3MmwxQMmb6-1" target="36dUeiA59A3MmwxQMmb6-19" edge="1">
          <mxGeometry relative="1" as="geometry" />
        </mxCell>
        <mxCell id="sAbi1-FihfXt3FZRogOF-21" style="edgeStyle=orthogonalEdgeStyle;rounded=0;orthogonalLoop=1;jettySize=auto;html=1;" parent="1" source="36dUeiA59A3MmwxQMmb6-1" edge="1">
          <mxGeometry relative="1" as="geometry">
            <mxPoint x="400" y="889.0322580645161" as="targetPoint" />
            <Array as="points">
              <mxPoint x="165" y="210" />
              <mxPoint x="-10" y="210" />
              <mxPoint x="-10" y="889" />
            </Array>
          </mxGeometry>
        </mxCell>
        <mxCell id="36dUeiA59A3MmwxQMmb6-1" value="Врач-рентгенолог" style="rounded=0;whiteSpace=wrap;html=1;" parent="1" vertex="1">
          <mxGeometry x="110" y="220" width="110" height="50" as="geometry" />
        </mxCell>
        <mxCell id="36dUeiA59A3MmwxQMmb6-42" style="edgeStyle=orthogonalEdgeStyle;rounded=0;orthogonalLoop=1;jettySize=auto;html=1;entryX=0.5;entryY=1;entryDx=0;entryDy=0;" parent="1" source="36dUeiA59A3MmwxQMmb6-2" target="36dUeiA59A3MmwxQMmb6-32" edge="1">
          <mxGeometry relative="1" as="geometry" />
        </mxCell>
        <mxCell id="sAbi1-FihfXt3FZRogOF-20" style="edgeStyle=orthogonalEdgeStyle;rounded=0;orthogonalLoop=1;jettySize=auto;html=1;" parent="1" source="36dUeiA59A3MmwxQMmb6-2" edge="1">
          <mxGeometry relative="1" as="geometry">
            <mxPoint x="480" y="900" as="targetPoint" />
            <Array as="points">
              <mxPoint x="761" y="900" />
              <mxPoint x="480" y="900" />
            </Array>
          </mxGeometry>
        </mxCell>
        <mxCell id="36dUeiA59A3MmwxQMmb6-2" value="Врач-кардиолог" style="rounded=0;whiteSpace=wrap;html=1;" parent="1" vertex="1">
          <mxGeometry x="706" y="830" width="110" height="50" as="geometry" />
        </mxCell>
        <mxCell id="36dUeiA59A3MmwxQMmb6-28" style="edgeStyle=orthogonalEdgeStyle;rounded=0;orthogonalLoop=1;jettySize=auto;html=1;entryX=0;entryY=0.5;entryDx=0;entryDy=0;" parent="1" source="36dUeiA59A3MmwxQMmb6-3" target="36dUeiA59A3MmwxQMmb6-7" edge="1">
          <mxGeometry relative="1" as="geometry" />
        </mxCell>
        <mxCell id="36dUeiA59A3MmwxQMmb6-3" value="Анализ ФЛГ снимков легких" style="ellipse;whiteSpace=wrap;html=1;aspect=fixed;" parent="1" vertex="1">
          <mxGeometry x="210" y="370" width="80" height="80" as="geometry" />
        </mxCell>
        <mxCell id="36dUeiA59A3MmwxQMmb6-29" style="edgeStyle=orthogonalEdgeStyle;rounded=0;orthogonalLoop=1;jettySize=auto;html=1;entryX=1;entryY=0.5;entryDx=0;entryDy=0;" parent="1" source="36dUeiA59A3MmwxQMmb6-4" target="36dUeiA59A3MmwxQMmb6-7" edge="1">
          <mxGeometry relative="1" as="geometry" />
        </mxCell>
        <mxCell id="36dUeiA59A3MmwxQMmb6-4" value="Анализ МРТ снимков мозга" style="ellipse;whiteSpace=wrap;html=1;aspect=fixed;" parent="1" vertex="1">
          <mxGeometry x="536" y="370" width="80" height="80" as="geometry" />
        </mxCell>
        <mxCell id="36dUeiA59A3MmwxQMmb6-45" style="edgeStyle=orthogonalEdgeStyle;rounded=0;orthogonalLoop=1;jettySize=auto;html=1;entryX=0.852;entryY=1.001;entryDx=0;entryDy=0;entryPerimeter=0;" parent="1" source="36dUeiA59A3MmwxQMmb6-5" target="36dUeiA59A3MmwxQMmb6-7" edge="1">
          <mxGeometry relative="1" as="geometry">
            <Array as="points">
              <mxPoint x="460" y="666" />
            </Array>
          </mxGeometry>
        </mxCell>
        <mxCell id="36dUeiA59A3MmwxQMmb6-5" value="Анализ риска сердечных заболеваний" style="ellipse;whiteSpace=wrap;html=1;aspect=fixed;" parent="1" vertex="1">
          <mxGeometry x="560" y="625.53" width="80" height="80" as="geometry" />
        </mxCell>
        <mxCell id="36dUeiA59A3MmwxQMmb6-53" style="edgeStyle=orthogonalEdgeStyle;rounded=0;orthogonalLoop=1;jettySize=auto;html=1;entryX=0.5;entryY=0;entryDx=0;entryDy=0;exitX=0.135;exitY=0.968;exitDx=0;exitDy=0;exitPerimeter=0;" parent="1" source="36dUeiA59A3MmwxQMmb6-7" target="36dUeiA59A3MmwxQMmb6-47" edge="1">
          <mxGeometry relative="1" as="geometry" />
        </mxCell>
        <mxCell id="sAbi1-FihfXt3FZRogOF-2" style="edgeStyle=orthogonalEdgeStyle;rounded=0;orthogonalLoop=1;jettySize=auto;html=1;entryX=0.5;entryY=1;entryDx=0;entryDy=0;exitX=0.8;exitY=-0.004;exitDx=0;exitDy=0;exitPerimeter=0;" parent="1" source="36dUeiA59A3MmwxQMmb6-7" target="sAbi1-FihfXt3FZRogOF-1" edge="1">
          <mxGeometry relative="1" as="geometry" />
        </mxCell>
        <mxCell id="sAbi1-FihfXt3FZRogOF-15" style="edgeStyle=orthogonalEdgeStyle;rounded=0;orthogonalLoop=1;jettySize=auto;html=1;" parent="1" edge="1">
          <mxGeometry relative="1" as="geometry">
            <mxPoint x="431" y="860" as="targetPoint" />
            <mxPoint x="431" y="590" as="sourcePoint" />
          </mxGeometry>
        </mxCell>
        <mxCell id="36dUeiA59A3MmwxQMmb6-7" value="Пациент" style="rounded=0;whiteSpace=wrap;html=1;" parent="1" vertex="1">
          <mxGeometry x="366" y="540" width="110" height="50" as="geometry" />
        </mxCell>
        <mxCell id="36dUeiA59A3MmwxQMmb6-8" value="" style="endArrow=none;html=1;rounded=0;" parent="1" edge="1">
          <mxGeometry width="50" height="50" relative="1" as="geometry">
            <mxPoint x="30" y="470" as="sourcePoint" />
            <mxPoint x="110" y="470" as="targetPoint" />
          </mxGeometry>
        </mxCell>
        <mxCell id="36dUeiA59A3MmwxQMmb6-9" value="" style="endArrow=none;html=1;rounded=0;" parent="1" edge="1">
          <mxGeometry width="50" height="50" relative="1" as="geometry">
            <mxPoint x="30" y="518.53" as="sourcePoint" />
            <mxPoint x="110" y="518.53" as="targetPoint" />
          </mxGeometry>
        </mxCell>
        <mxCell id="36dUeiA59A3MmwxQMmb6-22" style="edgeStyle=orthogonalEdgeStyle;rounded=0;orthogonalLoop=1;jettySize=auto;html=1;entryX=0;entryY=0.5;entryDx=0;entryDy=0;" parent="1" target="36dUeiA59A3MmwxQMmb6-3" edge="1">
          <mxGeometry relative="1" as="geometry">
            <Array as="points">
              <mxPoint x="70" y="560" />
              <mxPoint x="155" y="560" />
              <mxPoint x="155" y="410" />
            </Array>
            <mxPoint x="70" y="520" as="sourcePoint" />
          </mxGeometry>
        </mxCell>
        <mxCell id="36dUeiA59A3MmwxQMmb6-11" value="ФЛГ снимки" style="text;html=1;strokeColor=none;fillColor=none;align=center;verticalAlign=middle;whiteSpace=wrap;rounded=0;" parent="1" vertex="1">
          <mxGeometry x="40" y="480.53" width="60" height="30" as="geometry" />
        </mxCell>
        <mxCell id="36dUeiA59A3MmwxQMmb6-12" value="" style="endArrow=none;html=1;rounded=0;" parent="1" edge="1">
          <mxGeometry width="50" height="50" relative="1" as="geometry">
            <mxPoint x="466" y="220" as="sourcePoint" />
            <mxPoint x="546" y="220" as="targetPoint" />
          </mxGeometry>
        </mxCell>
        <mxCell id="36dUeiA59A3MmwxQMmb6-13" value="" style="endArrow=none;html=1;rounded=0;" parent="1" edge="1">
          <mxGeometry width="50" height="50" relative="1" as="geometry">
            <mxPoint x="466" y="268.53" as="sourcePoint" />
            <mxPoint x="546" y="268.53" as="targetPoint" />
          </mxGeometry>
        </mxCell>
        <mxCell id="36dUeiA59A3MmwxQMmb6-27" style="edgeStyle=orthogonalEdgeStyle;rounded=0;orthogonalLoop=1;jettySize=auto;html=1;entryX=1;entryY=0.5;entryDx=0;entryDy=0;" parent="1" source="36dUeiA59A3MmwxQMmb6-14" target="36dUeiA59A3MmwxQMmb6-4" edge="1">
          <mxGeometry relative="1" as="geometry">
            <Array as="points">
              <mxPoint x="650" y="246" />
              <mxPoint x="650" y="410" />
            </Array>
          </mxGeometry>
        </mxCell>
        <mxCell id="36dUeiA59A3MmwxQMmb6-14" value="МРТ снимки" style="text;html=1;strokeColor=none;fillColor=none;align=center;verticalAlign=middle;whiteSpace=wrap;rounded=0;" parent="1" vertex="1">
          <mxGeometry x="476" y="230.52999999999997" width="60" height="30" as="geometry" />
        </mxCell>
        <mxCell id="36dUeiA59A3MmwxQMmb6-17" style="edgeStyle=orthogonalEdgeStyle;rounded=0;orthogonalLoop=1;jettySize=auto;html=1;" parent="1" source="36dUeiA59A3MmwxQMmb6-15" edge="1">
          <mxGeometry relative="1" as="geometry">
            <mxPoint x="70" y="470" as="targetPoint" />
          </mxGeometry>
        </mxCell>
        <mxCell id="36dUeiA59A3MmwxQMmb6-15" value="Загрузка ФЛГ снимков" style="ellipse;whiteSpace=wrap;html=1;aspect=fixed;" parent="1" vertex="1">
          <mxGeometry x="30" y="340" width="80" height="80" as="geometry" />
        </mxCell>
        <mxCell id="36dUeiA59A3MmwxQMmb6-18" value="ФЛГ снимки" style="text;html=1;strokeColor=none;fillColor=none;align=center;verticalAlign=middle;whiteSpace=wrap;rounded=0;" parent="1" vertex="1">
          <mxGeometry x="60" y="280" width="60" height="30" as="geometry" />
        </mxCell>
        <mxCell id="36dUeiA59A3MmwxQMmb6-21" style="edgeStyle=orthogonalEdgeStyle;rounded=0;orthogonalLoop=1;jettySize=auto;html=1;" parent="1" source="36dUeiA59A3MmwxQMmb6-19" target="36dUeiA59A3MmwxQMmb6-14" edge="1">
          <mxGeometry relative="1" as="geometry" />
        </mxCell>
        <mxCell id="36dUeiA59A3MmwxQMmb6-19" value="Загрузка МРТ снимков" style="ellipse;whiteSpace=wrap;html=1;aspect=fixed;" parent="1" vertex="1">
          <mxGeometry x="334" y="205" width="80" height="80" as="geometry" />
        </mxCell>
        <mxCell id="36dUeiA59A3MmwxQMmb6-24" value="Результат анализа" style="text;html=1;strokeColor=none;fillColor=none;align=center;verticalAlign=middle;whiteSpace=wrap;rounded=0;" parent="1" vertex="1">
          <mxGeometry x="260" y="510.53" width="60" height="30" as="geometry" />
        </mxCell>
        <mxCell id="36dUeiA59A3MmwxQMmb6-30" value="Результат анализа" style="text;html=1;strokeColor=none;fillColor=none;align=center;verticalAlign=middle;whiteSpace=wrap;rounded=0;" parent="1" vertex="1">
          <mxGeometry x="510" y="510.53" width="60" height="30" as="geometry" />
        </mxCell>
        <mxCell id="36dUeiA59A3MmwxQMmb6-31" value="МРТ снимки" style="text;html=1;strokeColor=none;fillColor=none;align=center;verticalAlign=middle;whiteSpace=wrap;rounded=0;" parent="1" vertex="1">
          <mxGeometry x="250" y="210.53" width="60" height="30" as="geometry" />
        </mxCell>
        <mxCell id="36dUeiA59A3MmwxQMmb6-43" style="edgeStyle=orthogonalEdgeStyle;rounded=0;orthogonalLoop=1;jettySize=auto;html=1;" parent="1" source="36dUeiA59A3MmwxQMmb6-32" edge="1">
          <mxGeometry relative="1" as="geometry">
            <mxPoint x="761" y="690" as="targetPoint" />
          </mxGeometry>
        </mxCell>
        <mxCell id="36dUeiA59A3MmwxQMmb6-32" value="Загрузка данных о пациенте" style="ellipse;whiteSpace=wrap;html=1;aspect=fixed;" parent="1" vertex="1">
          <mxGeometry x="721" y="720" width="80" height="80" as="geometry" />
        </mxCell>
        <mxCell id="36dUeiA59A3MmwxQMmb6-34" value="" style="endArrow=none;html=1;rounded=0;" parent="1" edge="1">
          <mxGeometry width="50" height="50" relative="1" as="geometry">
            <mxPoint x="721" y="640" as="sourcePoint" />
            <mxPoint x="801" y="640" as="targetPoint" />
          </mxGeometry>
        </mxCell>
        <mxCell id="36dUeiA59A3MmwxQMmb6-35" value="" style="endArrow=none;html=1;rounded=0;" parent="1" edge="1">
          <mxGeometry width="50" height="50" relative="1" as="geometry">
            <mxPoint x="721" y="688.53" as="sourcePoint" />
            <mxPoint x="801" y="688.53" as="targetPoint" />
          </mxGeometry>
        </mxCell>
        <mxCell id="36dUeiA59A3MmwxQMmb6-44" style="edgeStyle=orthogonalEdgeStyle;rounded=0;orthogonalLoop=1;jettySize=auto;html=1;entryX=1;entryY=0.5;entryDx=0;entryDy=0;" parent="1" source="36dUeiA59A3MmwxQMmb6-36" target="36dUeiA59A3MmwxQMmb6-5" edge="1">
          <mxGeometry relative="1" as="geometry" />
        </mxCell>
        <mxCell id="36dUeiA59A3MmwxQMmb6-36" value="Данные пациентов" style="text;html=1;strokeColor=none;fillColor=none;align=center;verticalAlign=middle;whiteSpace=wrap;rounded=0;" parent="1" vertex="1">
          <mxGeometry x="731" y="650.53" width="60" height="30" as="geometry" />
        </mxCell>
        <mxCell id="36dUeiA59A3MmwxQMmb6-39" value="Данные здоровья пациента" style="text;html=1;strokeColor=none;fillColor=none;align=center;verticalAlign=middle;whiteSpace=wrap;rounded=0;" parent="1" vertex="1">
          <mxGeometry x="680" y="790" width="60" height="30" as="geometry" />
        </mxCell>
        <mxCell id="36dUeiA59A3MmwxQMmb6-52" style="edgeStyle=orthogonalEdgeStyle;rounded=0;orthogonalLoop=1;jettySize=auto;html=1;entryX=0.5;entryY=1;entryDx=0;entryDy=0;" parent="1" source="36dUeiA59A3MmwxQMmb6-46" target="36dUeiA59A3MmwxQMmb6-51" edge="1">
          <mxGeometry relative="1" as="geometry" />
        </mxCell>
        <mxCell id="36dUeiA59A3MmwxQMmb6-46" value="Администратор системы" style="rounded=0;whiteSpace=wrap;html=1;" parent="1" vertex="1">
          <mxGeometry x="25" y="830" width="110" height="50" as="geometry" />
        </mxCell>
        <mxCell id="36dUeiA59A3MmwxQMmb6-54" style="edgeStyle=orthogonalEdgeStyle;rounded=0;orthogonalLoop=1;jettySize=auto;html=1;" parent="1" source="36dUeiA59A3MmwxQMmb6-47" edge="1">
          <mxGeometry relative="1" as="geometry">
            <mxPoint x="260" y="680" as="targetPoint" />
          </mxGeometry>
        </mxCell>
        <mxCell id="36dUeiA59A3MmwxQMmb6-47" value="Регистрация" style="ellipse;whiteSpace=wrap;html=1;aspect=fixed;" parent="1" vertex="1">
          <mxGeometry x="340" y="640" width="80" height="80" as="geometry" />
        </mxCell>
        <mxCell id="36dUeiA59A3MmwxQMmb6-48" value="" style="endArrow=none;html=1;rounded=0;" parent="1" edge="1">
          <mxGeometry width="50" height="50" relative="1" as="geometry">
            <mxPoint x="180" y="656" as="sourcePoint" />
            <mxPoint x="260" y="656" as="targetPoint" />
          </mxGeometry>
        </mxCell>
        <mxCell id="36dUeiA59A3MmwxQMmb6-49" value="" style="endArrow=none;html=1;rounded=0;" parent="1" edge="1">
          <mxGeometry width="50" height="50" relative="1" as="geometry">
            <mxPoint x="180" y="704.53" as="sourcePoint" />
            <mxPoint x="260" y="704.53" as="targetPoint" />
          </mxGeometry>
        </mxCell>
        <mxCell id="36dUeiA59A3MmwxQMmb6-50" value="Пользователи" style="text;html=1;strokeColor=none;fillColor=none;align=center;verticalAlign=middle;whiteSpace=wrap;rounded=0;" parent="1" vertex="1">
          <mxGeometry x="190" y="666.53" width="60" height="30" as="geometry" />
        </mxCell>
        <mxCell id="36dUeiA59A3MmwxQMmb6-55" style="edgeStyle=orthogonalEdgeStyle;rounded=0;orthogonalLoop=1;jettySize=auto;html=1;" parent="1" source="36dUeiA59A3MmwxQMmb6-51" edge="1">
          <mxGeometry relative="1" as="geometry">
            <mxPoint x="180" y="680" as="targetPoint" />
          </mxGeometry>
        </mxCell>
        <mxCell id="36dUeiA59A3MmwxQMmb6-51" value="Ввод данных врача" style="ellipse;whiteSpace=wrap;html=1;aspect=fixed;" parent="1" vertex="1">
          <mxGeometry x="40" y="640" width="80" height="80" as="geometry" />
        </mxCell>
        <mxCell id="36dUeiA59A3MmwxQMmb6-56" value="Данные врача" style="text;html=1;strokeColor=none;fillColor=none;align=center;verticalAlign=middle;whiteSpace=wrap;rounded=0;" parent="1" vertex="1">
          <mxGeometry x="20" y="770" width="60" height="30" as="geometry" />
        </mxCell>
        <mxCell id="36dUeiA59A3MmwxQMmb6-57" value="Данные пациента" style="text;html=1;strokeColor=none;fillColor=none;align=center;verticalAlign=middle;whiteSpace=wrap;rounded=0;" parent="1" vertex="1">
          <mxGeometry x="320" y="595.53" width="60" height="30" as="geometry" />
        </mxCell>
        <mxCell id="sAbi1-FihfXt3FZRogOF-7" style="edgeStyle=orthogonalEdgeStyle;rounded=0;orthogonalLoop=1;jettySize=auto;html=1;entryX=1;entryY=0.5;entryDx=0;entryDy=0;" parent="1" source="sAbi1-FihfXt3FZRogOF-1" target="sAbi1-FihfXt3FZRogOF-6" edge="1">
          <mxGeometry relative="1" as="geometry" />
        </mxCell>
        <mxCell id="sAbi1-FihfXt3FZRogOF-1" value="Регистрация на прием" style="ellipse;whiteSpace=wrap;html=1;aspect=fixed;" parent="1" vertex="1">
          <mxGeometry x="414" y="305.53" width="80" height="80" as="geometry" />
        </mxCell>
        <mxCell id="sAbi1-FihfXt3FZRogOF-3" value="Дата,&lt;br&gt;Время,&lt;br&gt;Врач" style="text;html=1;strokeColor=none;fillColor=none;align=center;verticalAlign=middle;whiteSpace=wrap;rounded=0;" parent="1" vertex="1">
          <mxGeometry x="391" y="490" width="60" height="30" as="geometry" />
        </mxCell>
        <mxCell id="sAbi1-FihfXt3FZRogOF-4" value="" style="endArrow=none;html=1;rounded=0;" parent="1" edge="1">
          <mxGeometry width="50" height="50" relative="1" as="geometry">
            <mxPoint x="290" y="320" as="sourcePoint" />
            <mxPoint x="370" y="320" as="targetPoint" />
          </mxGeometry>
        </mxCell>
        <mxCell id="sAbi1-FihfXt3FZRogOF-5" value="" style="endArrow=none;html=1;rounded=0;" parent="1" edge="1">
          <mxGeometry width="50" height="50" relative="1" as="geometry">
            <mxPoint x="290" y="368.53" as="sourcePoint" />
            <mxPoint x="370" y="368.53" as="targetPoint" />
          </mxGeometry>
        </mxCell>
        <mxCell id="sAbi1-FihfXt3FZRogOF-8" style="edgeStyle=orthogonalEdgeStyle;rounded=0;orthogonalLoop=1;jettySize=auto;html=1;entryX=0.5;entryY=1;entryDx=0;entryDy=0;" parent="1" source="sAbi1-FihfXt3FZRogOF-6" target="36dUeiA59A3MmwxQMmb6-1" edge="1">
          <mxGeometry relative="1" as="geometry" />
        </mxCell>
        <mxCell id="sAbi1-FihfXt3FZRogOF-9" style="edgeStyle=orthogonalEdgeStyle;rounded=0;orthogonalLoop=1;jettySize=auto;html=1;entryX=1;entryY=0.5;entryDx=0;entryDy=0;" parent="1" target="36dUeiA59A3MmwxQMmb6-2" edge="1">
          <mxGeometry relative="1" as="geometry">
            <mxPoint x="330" y="320" as="sourcePoint" />
            <Array as="points">
              <mxPoint x="330" y="300" />
              <mxPoint x="836" y="300" />
              <mxPoint x="836" y="855" />
            </Array>
          </mxGeometry>
        </mxCell>
        <mxCell id="sAbi1-FihfXt3FZRogOF-6" value="Записи на прием" style="text;html=1;strokeColor=none;fillColor=none;align=center;verticalAlign=middle;whiteSpace=wrap;rounded=0;" parent="1" vertex="1">
          <mxGeometry x="300" y="330.53" width="60" height="30" as="geometry" />
        </mxCell>
        <mxCell id="sAbi1-FihfXt3FZRogOF-10" value="Уведомление о приеме" style="text;html=1;strokeColor=none;fillColor=none;align=center;verticalAlign=middle;whiteSpace=wrap;rounded=0;" parent="1" vertex="1">
          <mxGeometry x="180" y="280" width="60" height="30" as="geometry" />
        </mxCell>
        <mxCell id="sAbi1-FihfXt3FZRogOF-11" value="Уведомление о приеме" style="text;html=1;strokeColor=none;fillColor=none;align=center;verticalAlign=middle;whiteSpace=wrap;rounded=0;" parent="1" vertex="1">
          <mxGeometry x="850" y="810" width="60" height="30" as="geometry" />
        </mxCell>
        <mxCell id="sAbi1-FihfXt3FZRogOF-12" value="" style="endArrow=none;html=1;rounded=0;" parent="1" edge="1">
          <mxGeometry width="50" height="50" relative="1" as="geometry">
            <mxPoint x="400" y="860" as="sourcePoint" />
            <mxPoint x="480" y="860" as="targetPoint" />
          </mxGeometry>
        </mxCell>
        <mxCell id="sAbi1-FihfXt3FZRogOF-13" value="" style="endArrow=none;html=1;rounded=0;" parent="1" edge="1">
          <mxGeometry width="50" height="50" relative="1" as="geometry">
            <mxPoint x="400" y="908.53" as="sourcePoint" />
            <mxPoint x="480" y="908.53" as="targetPoint" />
          </mxGeometry>
        </mxCell>
        <mxCell id="sAbi1-FihfXt3FZRogOF-19" style="edgeStyle=orthogonalEdgeStyle;rounded=0;orthogonalLoop=1;jettySize=auto;html=1;entryX=0.314;entryY=1.023;entryDx=0;entryDy=0;entryPerimeter=0;" parent="1" target="36dUeiA59A3MmwxQMmb6-2" edge="1">
          <mxGeometry relative="1" as="geometry">
            <mxPoint x="480" y="890" as="sourcePoint" />
            <Array as="points">
              <mxPoint x="480" y="890" />
              <mxPoint x="741" y="890" />
              <mxPoint x="741" y="881" />
            </Array>
          </mxGeometry>
        </mxCell>
        <mxCell id="sAbi1-FihfXt3FZRogOF-14" value="БД сообщений" style="text;html=1;strokeColor=none;fillColor=none;align=center;verticalAlign=middle;whiteSpace=wrap;rounded=0;" parent="1" vertex="1">
          <mxGeometry x="410" y="870.53" width="60" height="30" as="geometry" />
        </mxCell>
        <mxCell id="sAbi1-FihfXt3FZRogOF-16" style="edgeStyle=orthogonalEdgeStyle;rounded=0;orthogonalLoop=1;jettySize=auto;html=1;entryX=0.667;entryY=1.031;entryDx=0;entryDy=0;entryPerimeter=0;" parent="1" target="36dUeiA59A3MmwxQMmb6-7" edge="1">
          <mxGeometry relative="1" as="geometry">
            <mxPoint x="440" y="860" as="sourcePoint" />
            <Array as="points">
              <mxPoint x="440" y="725" />
              <mxPoint x="439" y="725" />
            </Array>
          </mxGeometry>
        </mxCell>
        <mxCell id="sAbi1-FihfXt3FZRogOF-17" value="Сообщение,&lt;br&gt;Получатель" style="text;html=1;strokeColor=none;fillColor=none;align=center;verticalAlign=middle;whiteSpace=wrap;rounded=0;" parent="1" vertex="1">
          <mxGeometry x="450" y="790" width="60" height="30" as="geometry" />
        </mxCell>
        <mxCell id="sAbi1-FihfXt3FZRogOF-18" value="Сообщение,&lt;br&gt;Отправитель" style="text;html=1;strokeColor=none;fillColor=none;align=center;verticalAlign=middle;whiteSpace=wrap;rounded=0;" parent="1" vertex="1">
          <mxGeometry x="354" y="790" width="60" height="30" as="geometry" />
        </mxCell>
        <mxCell id="sAbi1-FihfXt3FZRogOF-22" style="edgeStyle=orthogonalEdgeStyle;rounded=0;orthogonalLoop=1;jettySize=auto;html=1;entryX=0.639;entryY=-0.02;entryDx=0;entryDy=0;entryPerimeter=0;" parent="1" target="36dUeiA59A3MmwxQMmb6-1" edge="1">
          <mxGeometry relative="1" as="geometry">
            <mxPoint x="400" y="900" as="sourcePoint" />
            <Array as="points">
              <mxPoint x="-20" y="900" />
              <mxPoint x="-20" y="200" />
              <mxPoint x="180" y="200" />
            </Array>
          </mxGeometry>
        </mxCell>
        <mxCell id="sAbi1-FihfXt3FZRogOF-23" value="Сообщение,&lt;br&gt;Отправитель" style="text;html=1;strokeColor=none;fillColor=none;align=center;verticalAlign=middle;whiteSpace=wrap;rounded=0;" parent="1" vertex="1">
          <mxGeometry x="331" y="850" width="60" height="30" as="geometry" />
        </mxCell>
        <mxCell id="sAbi1-FihfXt3FZRogOF-24" value="Сообщение,&lt;br&gt;Получатель" style="text;html=1;strokeColor=none;fillColor=none;align=center;verticalAlign=middle;whiteSpace=wrap;rounded=0;" parent="1" vertex="1">
          <mxGeometry x="334" y="900.53" width="60" height="30" as="geometry" />
        </mxCell>
        <mxCell id="sAbi1-FihfXt3FZRogOF-25" value="Сообщение,&lt;br&gt;Отправитель" style="text;html=1;strokeColor=none;fillColor=none;align=center;verticalAlign=middle;whiteSpace=wrap;rounded=0;" parent="1" vertex="1">
          <mxGeometry x="494" y="910" width="60" height="30" as="geometry" />
        </mxCell>
        <mxCell id="sAbi1-FihfXt3FZRogOF-26" value="Сообщение,&lt;br&gt;Получатель" style="text;html=1;strokeColor=none;fillColor=none;align=center;verticalAlign=middle;whiteSpace=wrap;rounded=0;" parent="1" vertex="1">
          <mxGeometry x="486" y="850" width="60" height="30" as="geometry" />
        </mxCell>
      </root>
    </mxGraphModel>
  </diagram>
</mxfile>
